<?xml version="1.0" standalone="no"?>
<!DOCTYPE svg PUBLIC "-//W3C//DTD SVG 20010904//EN"
 "http://www.w3.org/TR/2001/REC-SVG-20010904/DTD/svg10.dtd">
<svg version="1.0" xmlns="http://www.w3.org/2000/svg"
 width="250.000000pt" height="250.000000pt" viewBox="0 0 250.000000 250.000000"
 preserveAspectRatio="xMidYMid meet">
<metadata>
Created by potrace 1.11, written by Peter Selinger 2001-2013
</metadata>
<g transform="translate(0.000000,250.000000) scale(0.100000,-0.100000)"
fill="#000000" stroke="none">
<path d="M1470 2245 c-168 -46 -283 -147 -382 -335 -40 -78 -89 -121 -214
-189 -142 -78 -241 -159 -347 -286 l-25 -30 -22 20 c-88 80 -61 199 77 342 40
42 73 84 73 93 0 35 -43 60 -101 60 -50 0 -56 3 -72 29 -30 52 -98 110 -134
117 -46 9 -70 -6 -117 -69 -169 -227 -184 -515 -43 -835 l44 -99 -54 -57 c-98
-106 -59 -158 127 -172 63 -5 80 -11 110 -35 123 -101 262 -172 415 -212 l83
-21 -26 -52 c-36 -73 -29 -83 50 -72 80 12 215 4 262 -16 62 -26 102 -64 136
-129 18 -34 34 -63 35 -65 2 -2 25 8 52 23 54 27 93 60 93 76 0 15 -29 70 -57
107 -14 18 -23 35 -20 38 2 3 59 13 126 24 66 10 126 22 131 25 6 4 10 31 9
61 -1 30 -1 56 2 58 2 2 38 27 80 55 94 62 196 169 242 253 82 147 104 304 67
487 -19 96 -20 119 -10 159 18 73 33 90 87 97 174 22 283 54 283 84 0 42 -130
126 -236 152 -73 18 -79 22 -122 101 -48 87 -121 159 -200 196 -53 25 -68 27
-202 29 -104 2 -161 -2 -200 -12z"/>
</g>
</svg>
